HIERARCHY
ROOT Hips
{
	OFFSET 0.000000 0.000000 0.000000
	CHANNELS 6 Xposition Yposition Zposition Zrotation Yrotation Xrotation 
	JOINT LeftUpLeg_virtual
	{
		OFFSET 0.000000 0.000000 0.000000
		CHANNELS 3 Zrotation Yrotation Xrotation
		JOINT LeftUpLeg
		{
			OFFSET 10.205400 -3.823500 0.155100
			CHANNELS 3 Zrotation Yrotation Xrotation
			JOINT LeftLeg
			{
				OFFSET 0.708757 -12.982077 0.567790
				CHANNELS 3 Zrotation Yrotation Xrotation
				JOINT LeftFoot
				{
					OFFSET -0.708756 -10.717838 -2.184338
					CHANNELS 3 Zrotation Yrotation Xrotation
					JOINT LeftToeBase
					{
						OFFSET 0.108149 -7.191104 7.560241
						CHANNELS 3 Zrotation Yrotation Xrotation
						End Site
						{
							OFFSET 0.000000 0.000000 0.000000
						}
					}
				}
			}
		}
	}
	JOINT RightUpLeg_virtual
	{
		OFFSET 0.000000 0.000000 0.000000
		CHANNELS 3 Zrotation Yrotation Xrotation
		JOINT RightUpLeg
		{
			OFFSET -10.205400 -3.823500 0.005500
			CHANNELS 3 Zrotation Yrotation Xrotation
			JOINT RightLeg
			{
				OFFSET -0.708756 -12.982134 0.610632
				CHANNELS 3 Zrotation Yrotation Xrotation
				JOINT RightFoot
				{
					OFFSET 0.708754 -10.717769 -1.945823
					CHANNELS 3 Zrotation Yrotation Xrotation
					JOINT RightToeBase
					{
						OFFSET -0.108140 -7.191069 7.372968
						CHANNELS 3 Zrotation Yrotation Xrotation
						End Site
						{
							OFFSET 0.000000 0.000000 0.000000
						}
					}
				}
			}
		}
	}
	JOINT Spine_virtual
	{
		OFFSET 0.000000 0.000000 0.000000
		CHANNELS 3 Zrotation Yrotation Xrotation
		JOINT Spine
		{
			OFFSET 0.000000 6.876099 0.125700
			CHANNELS 3 Zrotation Yrotation Xrotation
			JOINT Spine1
			{
				OFFSET 0.000000 8.022060 0.146608
				CHANNELS 3 Zrotation Yrotation Xrotation
				JOINT Spine2
				{
					OFFSET 0.000000 9.168068 0.167552
					CHANNELS 3 Zrotation Yrotation Xrotation
					JOINT Neck_virtual
					{
						OFFSET 0.000000 0.000000 0.000000
						CHANNELS 3 Zrotation Yrotation Xrotation
						JOINT Neck
						{
							OFFSET 0.000000 10.314075 0.188496
							CHANNELS 3 Zrotation Yrotation Xrotation
							JOINT Head
							{
								OFFSET 0.000000 7.643700 -2.377400
								CHANNELS 3 Zrotation Yrotation Xrotation
								End Site
								{
									OFFSET 0.000000 0.000000 0.000000
								}
							}
						}
					}
					JOINT LeftShoulder_virtual
					{
						OFFSET 0.000000 0.000000 0.000000
						CHANNELS 3 Zrotation Yrotation Xrotation
						JOINT LeftShoulder
						{
							OFFSET 4.392200 8.824978 0.174984
							CHANNELS 3 Zrotation Yrotation Xrotation
							JOINT LeftArm
							{
								OFFSET 8.771219 -2.981674 -0.026999
								CHANNELS 3 Zrotation Yrotation Xrotation
								JOINT LeftForeArm
								{
									OFFSET 8.512804 0.000000 -0.000000
									CHANNELS 3 Zrotation Yrotation Xrotation
									JOINT LeftHand
									{
										OFFSET 18.484802 0.000000 -0.000000
										CHANNELS 3 Zrotation Yrotation Xrotation
										End Site
										{
											OFFSET 0.000000 0.000000 0.000000
										}
									}
								}
							}
						}
					}
					JOINT RightShoulder_virtual
					{
						OFFSET 0.000000 0.000000 0.000000
						CHANNELS 3 Zrotation Yrotation Xrotation
						JOINT RightShoulder
						{
							OFFSET -4.392200 8.824993 0.141379
							CHANNELS 3 Zrotation Yrotation Xrotation
							JOINT RightArm
							{
								OFFSET -8.771282 -2.981682 -0.094208
								CHANNELS 3 Zrotation Yrotation Xrotation
								JOINT RightForeArm
								{
									OFFSET -8.494598 0.000000 0.000000
									CHANNELS 3 Zrotation Yrotation Xrotation
									JOINT RightHand
									{
										OFFSET -18.483803 0.000000 0.000001
										CHANNELS 3 Zrotation Yrotation Xrotation
										End Site
										{
											OFFSET 0.000000 0.000000 0.000000
										}
									}
								}
							}
						}
					}
				}
			}
		}
	}
}
MOTION
Frames: 8
Frame Time: 0.033333
-2.517378 19.096588 16.832457 179.958177 4.566009 179.987943 5.573271 -5.702741 -32.403736 -9.874250 7.035261 -58.938898 23.156228 -1.043903 27.021939 -13.110923 -19.056730 19.891707 0.000000 0.000000 0.000000 2.519343 1.976067 -27.971423 4.537366 6.883384 -69.728226 -8.546237 -1.597271 29.624187 6.643512 0.787770 46.420660 0.000000 0.000000 0.000000 -2.414044 2.552245 -32.744832 2.327265 -2.688402 -15.513252 -1.606890 -4.517059 12.721670 0.007298 0.032637 0.011086 -2.012003 -3.488854 17.953337 0.896342 -1.161468 52.092825 0.000000 0.000000 0.000000 1.887109 -3.053092 10.090565 -6.326457 4.557608 -5.440121 39.819719 -5.605757 -64.853391 -169.983574 -71.576366 -177.323718 0.000000 0.000000 0.000000 -4.084555 -1.209451 9.441258 16.777868 8.875468 -13.344229 -20.965612 -18.787866 -43.236419 175.853274 43.375335 178.417518 0.000000 0.000000 0.000000 
-2.527735 19.084404 16.812082 179.949994 4.400434 179.964078 5.545706 -5.807744 -32.312983 -10.627198 6.748814 -59.193015 22.801451 -0.350755 27.970729 -14.166774 -20.144787 19.466500 0.000000 0.000000 0.000000 2.331417 1.694131 -27.952023 5.359817 6.453079 -69.718944 -8.027513 -2.360322 30.590068 7.774871 1.088752 47.869575 0.000000 0.000000 0.000000 -2.437283 2.343046 -32.734180 2.275017 -2.690401 -15.618399 -1.569679 -4.504435 12.717688 -0.006335 -0.001959 0.016743 -1.997343 -3.397148 17.979252 0.845708 -0.992156 52.250671 0.000000 0.000000 0.000000 1.926679 -2.936006 10.092987 -6.437214 4.635297 -5.435760 39.785230 -5.155393 -64.730297 -169.781332 -71.559680 -177.518392 0.000000 0.000000 0.000000 -4.021560 -1.100121 9.501309 16.825029 8.863637 -13.223514 -20.978588 -19.460519 -43.272633 175.787868 43.221939 178.488156 0.000000 0.000000 0.000000 
-2.543321 19.077324 16.819477 179.977998 4.224464 -179.876119 5.596713 -5.918955 -32.331185 -11.480865 6.504869 -59.536177 23.014652 1.026468 29.024882 -13.806199 -20.169677 18.722711 0.000000 0.000000 0.000000 2.534115 1.612289 -27.576887 5.838515 7.104949 -69.650779 -8.231213 -3.133003 31.114039 5.208380 0.247259 45.074467 0.000000 0.000000 0.000000 -2.395219 2.145346 -32.801987 2.249134 -2.610147 -15.774800 -1.507513 -4.475128 12.710273 0.000069 0.014163 0.028786 -2.009547 -3.293038 18.097382 0.799477 -0.845226 52.424567 0.000000 0.000000 0.000000 1.921063 -2.896292 10.200789 -6.604238 4.514272 -5.405127 39.636995 -4.916735 -64.636170 -169.806112 -71.559052 -177.465868 0.000000 0.000000 0.000000 -3.983421 -1.055042 9.615755 16.809825 8.914702 -13.221575 -20.655342 -19.774489 -43.402843 175.815367 43.019168 178.441861 0.000000 0.000000 0.000000 
-2.558735 19.072823 16.843573 179.942645 4.016254 -179.949626 5.527731 -6.108737 -32.281830 -12.194018 6.426961 -59.731070 23.627554 2.133860 29.531491 -12.568355 -19.521536 18.116846 0.000000 0.000000 0.000000 2.628769 1.533620 -27.268478 6.284127 7.371335 -69.514469 -8.290245 -3.542118 31.575210 3.100561 -0.536365 42.728106 0.000000 0.000000 0.000000 -2.441970 2.068873 -32.722439 2.195865 -2.503117 -15.817436 -1.481773 -4.423371 12.745655 0.007241 0.028286 0.025534 -1.942411 -3.272746 18.136977 0.797408 -0.757201 52.494604 0.000000 0.000000 0.000000 1.974866 -2.931548 10.241192 -6.742921 4.370526 -5.337844 39.425447 -4.892647 -64.581044 -169.802888 -71.534777 -177.413836 0.000000 0.000000 0.000000 -3.919547 -1.073912 9.612424 16.730950 8.884856 -13.186399 -20.157572 -19.817121 -43.682734 175.769659 42.790213 178.546664 0.000000 0.000000 0.000000 
-2.568646 19.069275 16.873535 179.864016 3.805213 -179.956333 5.456014 -6.261642 -32.197812 -12.436184 6.354031 -59.676818 23.876309 1.983963 29.032655 -12.733130 -19.741499 18.596814 0.000000 0.000000 0.000000 2.583596 1.429169 -27.222861 6.645752 7.060157 -69.465367 -8.345964 -3.397040 31.607609 2.814517 -0.612226 42.436963 0.000000 0.000000 0.000000 -2.523870 2.005499 -32.631219 2.066964 -2.435316 -15.893454 -1.374766 -4.451766 12.781031 0.018076 -0.033703 0.021539 -1.913115 -3.256935 18.213782 0.815530 -0.707622 52.514999 0.000000 0.000000 0.000000 1.976654 -2.822894 10.296815 -6.746337 4.271205 -5.284813 39.216098 -5.024040 -64.545957 -169.776359 -71.553178 -177.360342 0.000000 0.000000 0.000000 -3.945043 -0.966880 9.712280 16.666071 9.056519 -13.097504 -19.581700 -19.732415 -43.723418 175.910962 42.570308 178.631945 0.000000 0.000000 0.000000 
-2.580867 19.064121 16.903549 179.896951 3.633153 -179.948287 5.493012 -6.338456 -32.166356 -12.647781 6.218860 -59.662590 23.989807 2.057635 28.521215 -12.775646 -19.881444 19.067306 0.000000 0.000000 0.000000 2.539616 1.383957 -27.232528 7.020725 6.728951 -69.436482 -8.435752 -3.210333 31.551963 2.405590 -0.738034 42.114130 0.000000 0.000000 0.000000 -2.478210 1.985806 -32.509300 2.039683 -2.292841 -15.990982 -1.406407 -4.386192 12.811991 0.021553 0.015694 0.007472 -1.840622 -3.289524 18.327146 0.834642 -0.671426 52.510016 0.000000 0.000000 0.000000 2.029776 -2.852981 10.431551 -6.802032 4.074324 -5.272603 39.075147 -5.258483 -64.544837 -169.619798 -71.495265 -177.421513 0.000000 0.000000 0.000000 -3.890924 -0.952928 9.827440 16.556322 9.103648 -13.081499 -19.155593 -19.435196 -43.641244 175.981094 42.359450 178.603464 0.000000 0.000000 0.000000 
-2.592640 19.056549 16.923838 179.974160 3.491467 -179.977984 5.537141 -6.319634 -32.120949 -12.880013 6.132792 -59.640577 24.003646 2.237268 28.157163 -12.772966 -20.030646 19.463304 0.000000 0.000000 0.000000 2.531578 1.416931 -27.200241 7.387878 6.537272 -69.352539 -8.552090 -2.996989 31.581675 2.032652 -0.849788 41.931095 0.000000 0.000000 0.000000 -2.447028 2.040222 -32.365125 1.999328 -2.198530 -16.050922 -1.368098 -4.369099 12.857943 0.020415 0.017921 0.019002 -1.833189 -3.273583 18.355747 0.863472 -0.606549 52.463762 0.000000 0.000000 0.000000 2.038800 -2.830360 10.475389 -6.749150 3.860961 -5.257443 38.937068 -5.456088 -64.569494 -169.717606 -71.480921 -177.204163 0.000000 0.000000 0.000000 -3.897294 -0.974284 9.870763 16.485746 9.157171 -13.151275 -18.798427 -19.111271 -43.488661 176.024097 42.088756 178.568794 0.000000 0.000000 0.000000 
-2.604538 19.046606 16.933498 179.958409 3.318524 -179.987137 5.462297 -6.299950 -32.103699 -13.077919 6.084906 -59.615455 24.061141 2.450896 27.939831 -12.780163 -20.177555 19.811833 0.000000 0.000000 0.000000 2.398963 1.408245 -27.286116 7.770693 6.329201 -69.298649 -8.687260 -2.786769 31.690172 1.591586 -0.990646 41.653984 0.000000 0.000000 0.000000 -2.551841 2.158188 -32.261070 1.936313 -2.251319 -16.115936 -1.348471 -4.301394 12.900284 0.008838 -0.067463 0.020087 -1.794034 -3.284920 18.422721 0.884792 -0.538817 52.423730 0.000000 0.000000 0.000000 2.065124 -2.824898 10.548835 -6.699605 3.689148 -5.241100 38.841640 -5.586769 -64.598522 -169.818447 -71.468367 -176.978097 0.000000 0.000000 0.000000 -3.870439 -0.959392 9.953200 16.414811 9.201357 -13.218924 -18.563797 -18.905714 -43.335716 176.089708 41.789710 178.537224 0.000000 0.000000 0.000000 
